<?xml version="1.0" encoding="UTF-8"?>
<svg id="_Слой_2" data-name="Слой 2" xmlns="http://www.w3.org/2000/svg" viewBox="0 0 86.63 66.15" fill="#ededed">
  <g id="_Слой_1-2" data-name="Слой 1">
    <path d="M63.36,9.06c-3.37,6.38-6.17,13.08-9.21,19.62l-13.16-19.9-19.61,31.9h6.59l13.17-21.07,13.46,21.07c4.54-8.79,8.28-18,12.59-26.91.41-.48,8.26-3.81,8.63-3.52l-20.34,43.89-13.91-22.82-.6.18c-3.09,5.29-6.17,10.69-9.79,15.62h-13.02V13.02L1.14.47l-1.14-.47v64.98h27.07l12.9-21.05,1.44-1.78,15.07,24L86.63,0l-23.28,9.06ZM24,59.41H5.85V11.12l3.31,2.1,3.42,2.73v36.73h15.22l-3.8,6.73Z"/>
  </g>
</svg>